<?xml version="1.0" encoding="utf-8"?><svg version="1.1" id="Layer_1" xmlns="http://www.w3.org/2000/svg" xmlns:xlink="http://www.w3.org/1999/xlink" x="0px" y="0px" viewBox="0 0 108.67 122.88" style="enable-background:new 0 0 108.67 122.88" xml:space="preserve"><style type="text/css"><![CDATA[
	.st0{fill-rule:evenodd;clip-rule:evenodd;}
]]></style><g><path class="st0" d="M25.14,53.37c-1.51,0-2.75,1.24-2.75,2.77s1.23,2.77,2.75,2.77h20.11c1.51,0,2.75-1.24,2.75-2.77 s-1.23-2.77-2.75-2.77H25.14L25.14,53.37L25.14,53.37z M77.77,0c17.06,0,30.9,13.83,30.9,30.9c0,12.32-7.21,22.95-17.64,27.92 v57.69c0,1.76-0.71,3.35-1.87,4.5c-1.16,1.16-2.75,1.87-4.5,1.87H6.37c-1.76,0-3.35-0.71-4.5-1.87c-1.16-1.16-1.87-2.75-1.87-4.5 V22.4c0-1.76,0.71-3.35,1.87-4.5c1.16-1.16,2.75-1.87,4.5-1.87h44.3C55.93,6.47,66.09,0,77.77,0L77.77,0z M85.55,60.81 c-2.48,0.65-5.09,0.99-7.78,0.99c-17.06,0-30.9-13.83-30.9-30.9c0-3.27,0.51-6.42,1.45-9.38H6.37c-0.24,0-0.47,0.1-0.63,0.26 c-0.16,0.17-0.26,0.39-0.26,0.63v94.09c0,0.24,0.1,0.46,0.26,0.63c0.17,0.16,0.39,0.26,0.63,0.26h78.28c0.24,0,0.47-0.1,0.63-0.26 c0.16-0.17,0.26-0.39,0.26-0.63V60.81L85.55,60.81z M25.14,92.22c-1.51,0-2.74,1.23-2.74,2.74c0,1.51,1.23,2.74,2.74,2.74h38.47 c1.51,0,2.74-1.23,2.74-2.74c0-1.51-1.23-2.74-2.74-2.74L25.14,92.22L25.14,92.22L25.14,92.22z M25.14,72.81 c-1.51,0-2.74,1.23-2.74,2.74s1.23,2.74,2.74,2.74h38.47c1.51,0,2.74-1.23,2.74-2.74s-1.23-2.74-2.74-2.74H25.14L25.14,72.81 L25.14,72.81z M68.71,25.78l5.67,5.4l11.76-11.92c0.97-0.98,1.57-1.77,2.77-0.54l3.87,3.96c1.27,1.26,1.21,1.99,0.01,3.16 l-16.2,15.94c-2.53,2.48-2.09,2.63-4.65,0.09l-9.75-9.7c-0.53-0.58-0.47-1.16,0.11-1.74l4.49-4.66 C67.46,25.07,68.01,25.11,68.71,25.78L68.71,25.78L68.71,25.78z"/></g></svg>