<?xml version="1.0" encoding="UTF-8"?>
<svg version="1.1" xmlns="http://www.w3.org/2000/svg" width="1289" height="1140">
<path d="M0 0 C0.84424076 -0.0030531 1.68848151 -0.00610619 2.55830532 -0.00925181 C5.39383072 -0.01705983 8.22914344 -0.01061647 11.06466991 -0.00426924 C13.12423891 -0.00696202 15.18380693 -0.0105295 17.24337307 -0.01489371 C22.92930722 -0.02437713 28.61517753 -0.02134284 34.30111489 -0.01633817 C40.47709464 -0.01307953 46.65306051 -0.0213474 52.82903588 -0.02815652 C63.66210872 -0.03847948 74.49515801 -0.04136577 85.32823402 -0.03924429 C96.95345956 -0.03699635 108.57867229 -0.03906019 120.20389587 -0.04638922 C120.93786966 -0.04684853 121.67184345 -0.04730783 122.42805887 -0.04778106 C125.41737778 -0.04966431 128.40669667 -0.05157569 131.39601554 -0.05352344 C162.59116952 -0.07381956 193.78631632 -0.07993568 224.98147615 -0.08110766 C228.34000357 -0.08123715 231.69853098 -0.08137303 235.05705839 -0.08151448 C235.89046996 -0.08154849 236.72388152 -0.0815825 237.58254798 -0.08161754 C256.04535206 -0.08243421 274.50815477 -0.0868133 292.97095812 -0.09182617 C300.57170863 -0.09388286 308.17245916 -0.09586291 315.77320969 -0.09785867 C317.03291245 -0.09819044 317.03291245 -0.09819044 318.31806374 -0.09852891 C366.44823152 -0.11117853 414.5783984 -0.11942698 462.70856792 -0.1185118 C464.51006477 -0.11848024 466.31156161 -0.11844877 468.11305846 -0.11841738 C476.24679415 -0.11827061 484.38052984 -0.11809427 492.51426553 -0.11790961 C496.14135629 -0.11782736 499.76844705 -0.11774707 503.39553782 -0.11766698 C505.21096293 -0.11762619 507.02638804 -0.11758415 508.84181315 -0.11754086 C566.24976208 -0.11618032 623.65768634 -0.13081532 681.06562835 -0.15862143 C695.52960577 -0.16562338 709.99358322 -0.17256226 724.45756084 -0.17915022 C725.34814552 -0.17955597 726.23873019 -0.17996172 727.15630229 -0.18037976 C754.60172852 -0.1928083 782.04715273 -0.20034061 809.49258167 -0.2028662 C810.78496336 -0.20298605 810.78496336 -0.20298605 812.10345377 -0.20310832 C831.01675908 -0.20481482 849.93006426 -0.20533728 868.84336963 -0.20476757 C875.61079552 -0.2045746 882.37822141 -0.20447051 889.1456473 -0.20441011 C890.8292348 -0.20439428 892.5128223 -0.20437387 894.19640979 -0.20434886 C921.03024398 -0.20399612 947.86405706 -0.21539616 974.6978852 -0.2326565 C1001.72280453 -0.24995139 1028.74769462 -0.25434317 1055.77261715 -0.24113385 C1059.50672651 -0.23930925 1063.24083591 -0.23762269 1066.97494537 -0.23601782 C1068.07292929 -0.23553756 1068.07292929 -0.23553756 1069.19309471 -0.2350476 C1080.78509223 -0.23034094 1092.37703919 -0.23905821 1103.96902721 -0.2533602 C1115.36663735 -0.2671416 1126.76415344 -0.2663188 1138.16176892 -0.25097592 C1144.25908075 -0.24317951 1150.35621303 -0.24175704 1156.45351251 -0.25789063 C1162.00010843 -0.2724389 1167.54637513 -0.26858677 1173.09295635 -0.25004289 C1175.08729261 -0.24659935 1177.08165458 -0.24986008 1179.07596466 -0.26064531 C1196.91188504 -0.35064391 1210.64646128 2.76587008 1224.10542327 15.25299966 C1234.94271762 26.48940117 1238.8341474 39.90293893 1238.78364593 55.26203287 C1238.64576884 62.52461371 1237.63026758 68.66719032 1234.41792327 75.25299966 C1233.81657562 76.51756998 1233.81657562 76.51756998 1233.20307952 77.80768716 C1225.90299781 91.39218704 1214.56845428 99.50078378 1200.24434213 104.32092742 C1195.97628453 105.36057785 1192.20241028 105.53159443 1187.83584654 105.50599933 C1186.56948541 105.51057897 1186.56948541 105.51057897 1185.27754122 105.51525113 C1182.44201582 105.52305915 1179.60670311 105.51661579 1176.77117664 105.51026857 C1174.71160763 105.51296134 1172.65203962 105.51652882 1170.59247348 105.52089304 C1164.90653932 105.53037646 1159.22066901 105.52734216 1153.53473166 105.52233749 C1147.3587519 105.51907885 1141.18278603 105.52734673 1135.00681067 105.53415585 C1124.17373782 105.5444788 1113.34068853 105.5473651 1102.50761253 105.54524362 C1090.88238699 105.54299568 1079.25717426 105.54505952 1067.63195068 105.55238855 C1066.53098999 105.55307751 1066.53098999 105.55307751 1065.40778767 105.55378039 C1062.41846876 105.55566364 1059.42914987 105.55757501 1056.439831 105.55952277 C1025.24467702 105.57981889 994.04953022 105.58593501 962.85437039 105.58710699 C959.49584298 105.58723648 956.13731556 105.58737236 952.77878815 105.5875138 C951.94537659 105.58754781 951.11196502 105.58758182 950.25329857 105.58761686 C931.79049449 105.58843354 913.32769178 105.59281263 894.86488843 105.59782549 C887.26413791 105.59988219 879.66338738 105.60186224 872.06263685 105.60385799 C870.8029341 105.60418976 870.8029341 105.60418976 869.5177828 105.60452823 C821.38761502 105.61717786 773.25744815 105.62542631 725.12727863 105.62451112 C723.32578178 105.62447957 721.52428493 105.62444809 719.72278808 105.62441671 C711.58905239 105.62426994 703.4553167 105.6240936 695.32158101 105.62390894 C691.69449025 105.62382669 688.06739949 105.6237464 684.44030873 105.62366631 C682.62488362 105.62362552 680.8094585 105.62358348 678.99403339 105.62354019 C621.58608446 105.62217965 564.17816021 105.63681465 506.77021819 105.66462076 C492.30624077 105.6716227 477.84226332 105.67856158 463.37828571 105.68514955 C462.48770103 105.6855553 461.59711635 105.68596105 460.67954426 105.68637909 C433.23411802 105.69880763 405.78869381 105.70633993 378.34326488 105.70886552 C377.05088319 105.70898538 377.05088319 105.70898538 375.73239278 105.70910765 C356.81908747 105.71081414 337.90578228 105.71133661 318.99247691 105.7107669 C312.22505102 105.71057392 305.45762513 105.71046984 298.69019924 105.71040944 C297.00661174 105.71039361 295.32302425 105.7103732 293.63943675 105.71034819 C266.80560256 105.70999545 239.97178948 105.72139549 213.13796134 105.73865582 C186.11304201 105.75595072 159.08815192 105.76034249 132.06322939 105.74713318 C128.32912004 105.74530857 124.59501063 105.74362202 120.86090118 105.74201715 C119.76291725 105.74153689 119.76291725 105.74153689 118.64275184 105.74104692 C107.05075432 105.73634026 95.45880735 105.74505754 83.86681934 105.75935952 C72.4692092 105.77314093 61.0716931 105.77231813 49.67407763 105.75697525 C43.57676579 105.74917884 37.47963351 105.74775637 31.38233403 105.76388995 C25.83573811 105.77843823 20.28947142 105.7745861 14.7428902 105.75604222 C12.74855394 105.75259868 10.75419196 105.75585941 8.75988189 105.76664463 C-9.0760385 105.85664323 -22.81061474 102.74012925 -36.26957673 90.25299966 C-47.10687108 79.01659816 -50.99830086 65.6030604 -50.94779938 50.24396646 C-50.80992229 42.98138561 -49.79442104 36.838809 -46.58207673 30.25299966 C-46.18117829 29.40995279 -45.78027985 28.56690591 -45.36723298 27.69831216 C-38.06715127 14.11381229 -26.73260774 6.00521554 -12.40849559 1.18507191 C-8.14043798 0.14542147 -4.36656374 -0.0255951 0 0 Z " fill="#F6B017" transform="translate(50.582076728343964,620.747000336647)"/>
<path d="M0 0 C0.84424076 -0.0030531 1.68848151 -0.00610619 2.55830532 -0.00925181 C5.39383072 -0.01705983 8.22914344 -0.01061647 11.06466991 -0.00426924 C13.12423891 -0.00696202 15.18380693 -0.0105295 17.24337307 -0.01489371 C22.92930722 -0.02437713 28.61517753 -0.02134284 34.30111489 -0.01633817 C40.47709464 -0.01307953 46.65306051 -0.0213474 52.82903588 -0.02815652 C63.66210872 -0.03847948 74.49515801 -0.04136577 85.32823402 -0.03924429 C96.95345956 -0.03699635 108.57867229 -0.03906019 120.20389587 -0.04638922 C120.93786966 -0.04684853 121.67184345 -0.04730783 122.42805887 -0.04778106 C125.41737778 -0.04966431 128.40669667 -0.05157569 131.39601554 -0.05352344 C162.59116952 -0.07381956 193.78631632 -0.07993568 224.98147615 -0.08110766 C228.34000357 -0.08123715 231.69853098 -0.08137303 235.05705839 -0.08151448 C235.89046996 -0.08154849 236.72388152 -0.0815825 237.58254798 -0.08161754 C256.04535206 -0.08243421 274.50815477 -0.0868133 292.97095812 -0.09182617 C300.57170863 -0.09388286 308.17245916 -0.09586291 315.77320969 -0.09785867 C317.03291245 -0.09819044 317.03291245 -0.09819044 318.31806374 -0.09852891 C366.44823152 -0.11117853 414.5783984 -0.11942698 462.70856792 -0.1185118 C464.51006477 -0.11848024 466.31156161 -0.11844877 468.11305846 -0.11841738 C476.24679415 -0.11827061 484.38052984 -0.11809427 492.51426553 -0.11790961 C496.14135629 -0.11782736 499.76844705 -0.11774707 503.39553782 -0.11766698 C505.21096293 -0.11762619 507.02638804 -0.11758415 508.84181315 -0.11754086 C566.24976208 -0.11618032 623.65768634 -0.13081532 681.06562835 -0.15862143 C695.52960577 -0.16562338 709.99358322 -0.17256226 724.45756084 -0.17915022 C725.34814552 -0.17955597 726.23873019 -0.17996172 727.15630229 -0.18037976 C754.60172852 -0.1928083 782.04715273 -0.20034061 809.49258167 -0.2028662 C810.78496336 -0.20298605 810.78496336 -0.20298605 812.10345377 -0.20310832 C831.01675908 -0.20481482 849.93006426 -0.20533728 868.84336963 -0.20476757 C875.61079552 -0.2045746 882.37822141 -0.20447051 889.1456473 -0.20441011 C890.8292348 -0.20439428 892.5128223 -0.20437387 894.19640979 -0.20434886 C921.03024398 -0.20399612 947.86405706 -0.21539616 974.6978852 -0.2326565 C1001.72280453 -0.24995139 1028.74769462 -0.25434317 1055.77261715 -0.24113385 C1059.50672651 -0.23930925 1063.24083591 -0.23762269 1066.97494537 -0.23601782 C1068.07292929 -0.23553756 1068.07292929 -0.23553756 1069.19309471 -0.2350476 C1080.78509223 -0.23034094 1092.37703919 -0.23905821 1103.96902721 -0.2533602 C1115.36663735 -0.2671416 1126.76415344 -0.2663188 1138.16176892 -0.25097592 C1144.25908075 -0.24317951 1150.35621303 -0.24175704 1156.45351251 -0.25789063 C1162.00010843 -0.2724389 1167.54637513 -0.26858677 1173.09295635 -0.25004289 C1175.08729261 -0.24659935 1177.08165458 -0.24986008 1179.07596466 -0.26064531 C1196.91188504 -0.35064391 1210.64646128 2.76587008 1224.10542327 15.25299966 C1234.94271762 26.48940117 1238.8341474 39.90293893 1238.78364593 55.26203287 C1238.64576884 62.52461371 1237.63026758 68.66719032 1234.41792327 75.25299966 C1233.81657562 76.51756998 1233.81657562 76.51756998 1233.20307952 77.80768716 C1225.90299781 91.39218704 1214.56845428 99.50078378 1200.24434213 104.32092742 C1195.97628453 105.36057785 1192.20241028 105.53159443 1187.83584654 105.50599933 C1186.56948541 105.51057897 1186.56948541 105.51057897 1185.27754122 105.51525113 C1182.44201582 105.52305915 1179.60670311 105.51661579 1176.77117664 105.51026857 C1174.71160763 105.51296134 1172.65203962 105.51652882 1170.59247348 105.52089304 C1164.90653932 105.53037646 1159.22066901 105.52734216 1153.53473166 105.52233749 C1147.3587519 105.51907885 1141.18278603 105.52734673 1135.00681067 105.53415585 C1124.17373782 105.5444788 1113.34068853 105.5473651 1102.50761253 105.54524362 C1090.88238699 105.54299568 1079.25717426 105.54505952 1067.63195068 105.55238855 C1066.53098999 105.55307751 1066.53098999 105.55307751 1065.40778767 105.55378039 C1062.41846876 105.55566364 1059.42914987 105.55757501 1056.439831 105.55952277 C1025.24467702 105.57981889 994.04953022 105.58593501 962.85437039 105.58710699 C959.49584298 105.58723648 956.13731556 105.58737236 952.77878815 105.5875138 C951.94537659 105.58754781 951.11196502 105.58758182 950.25329857 105.58761686 C931.79049449 105.58843354 913.32769178 105.59281263 894.86488843 105.59782549 C887.26413791 105.59988219 879.66338738 105.60186224 872.06263685 105.60385799 C870.8029341 105.60418976 870.8029341 105.60418976 869.5177828 105.60452823 C821.38761502 105.61717786 773.25744815 105.62542631 725.12727863 105.62451112 C723.32578178 105.62447957 721.52428493 105.62444809 719.72278808 105.62441671 C711.58905239 105.62426994 703.4553167 105.6240936 695.32158101 105.62390894 C691.69449025 105.62382669 688.06739949 105.6237464 684.44030873 105.62366631 C682.62488362 105.62362552 680.8094585 105.62358348 678.99403339 105.62354019 C621.58608446 105.62217965 564.17816021 105.63681465 506.77021819 105.66462076 C492.30624077 105.6716227 477.84226332 105.67856158 463.37828571 105.68514955 C462.48770103 105.6855553 461.59711635 105.68596105 460.67954426 105.68637909 C433.23411802 105.69880763 405.78869381 105.70633993 378.34326488 105.70886552 C377.05088319 105.70898538 377.05088319 105.70898538 375.73239278 105.70910765 C356.81908747 105.71081414 337.90578228 105.71133661 318.99247691 105.7107669 C312.22505102 105.71057392 305.45762513 105.71046984 298.69019924 105.71040944 C297.00661174 105.71039361 295.32302425 105.7103732 293.63943675 105.71034819 C266.80560256 105.70999545 239.97178948 105.72139549 213.13796134 105.73865582 C186.11304201 105.75595072 159.08815192 105.76034249 132.06322939 105.74713318 C128.32912004 105.74530857 124.59501063 105.74362202 120.86090118 105.74201715 C119.76291725 105.74153689 119.76291725 105.74153689 118.64275184 105.74104692 C107.05075432 105.73634026 95.45880735 105.74505754 83.86681934 105.75935952 C72.4692092 105.77314093 61.0716931 105.77231813 49.67407763 105.75697525 C43.57676579 105.74917884 37.47963351 105.74775637 31.38233403 105.76388995 C25.83573811 105.77843823 20.28947142 105.7745861 14.7428902 105.75604222 C12.74855394 105.75259868 10.75419196 105.75585941 8.75988189 105.76664463 C-9.0760385 105.85664323 -22.81061474 102.74012925 -36.26957673 90.25299966 C-47.10687108 79.01659816 -50.99830086 65.6030604 -50.94779938 50.24396646 C-50.80992229 42.98138561 -49.79442104 36.838809 -46.58207673 30.25299966 C-46.18117829 29.40995279 -45.78027985 28.56690591 -45.36723298 27.69831216 C-38.06715127 14.11381229 -26.73260774 6.00521554 -12.40849559 1.18507191 C-8.14043798 0.14542147 -4.36656374 -0.0255951 0 0 Z " fill="#F6B017" transform="translate(50.582076728343964,413.74700033664703)"/>
<path d="M0 0 C1.43197207 -0.00269449 2.86394272 -0.00626296 4.29591069 -0.01062447 C8.2393061 -0.02008483 12.18260917 -0.01708105 16.12600914 -0.01206893 C20.41304001 -0.00880436 24.70005106 -0.01708312 28.98707563 -0.02388728 C36.50359184 -0.03420065 44.02008229 -0.03702875 51.53660488 -0.03497505 C62.71406607 -0.03192854 73.89149868 -0.0402413 85.06895431 -0.0507243 C106.19262716 -0.07008163 127.31629032 -0.07569317 148.43997099 -0.07683842 C164.75120365 -0.07775698 181.06243249 -0.0818709 197.3736639 -0.08823967 C202.06631082 -0.09003472 206.75895774 -0.09181435 211.45160466 -0.09358943 C213.20144247 -0.09425257 213.20144247 -0.09425257 214.98663054 -0.09492911 C247.80687494 -0.10724022 280.627118 -0.11512997 313.44736481 -0.11424255 C315.30404876 -0.11419582 315.30404876 -0.11419582 317.19824149 -0.11414814 C323.4720819 -0.11398192 329.74592231 -0.11378384 336.01976272 -0.11357872 C337.26580247 -0.11353883 338.51184222 -0.11349894 339.79564076 -0.11345784 C342.31543779 -0.11337697 344.83523482 -0.11329337 347.35503186 -0.11320706 C386.56160718 -0.11198147 425.7681479 -0.12699514 464.97471333 -0.15435219 C509.00831022 -0.18506461 553.04188439 -0.20228519 597.07549268 -0.20042574 C601.76971138 -0.20027648 606.46393007 -0.20017907 611.15814877 -0.20011711 C612.89194233 -0.20008215 612.89194233 -0.20008215 614.66076202 -0.20004648 C633.2723498 -0.1999849 651.88390759 -0.21276391 670.49548645 -0.22998164 C689.19671676 -0.24692463 707.89790312 -0.24892242 726.59913685 -0.235763 C737.71228881 -0.22836491 748.82530739 -0.23205745 759.93844526 -0.25164768 C767.36122956 -0.26362806 774.78391703 -0.26107823 782.20669684 -0.24670668 C786.43636026 -0.23892728 790.66576516 -0.23743898 794.89541056 -0.25362138 C798.74736411 -0.26822968 802.59884501 -0.26424784 806.45077787 -0.24577365 C808.48029523 -0.24073589 810.50983285 -0.25521762 812.53929803 -0.27061921 C827.66372813 -0.15330232 839.74229739 5.00919461 850.78794575 15.25726891 C861.62524009 26.49367041 865.51666988 39.90720817 865.4661684 55.26630211 C865.32829131 62.52888296 864.31279006 68.67145956 861.10044575 75.25726891 C860.49909809 76.52183922 860.49909809 76.52183922 859.885602 77.81195641 C852.52337699 91.51209686 841.40607549 99.0089181 827.25920695 104.32492983 C821.38954841 105.9496773 815.24008149 105.53410075 809.20089149 105.51453781 C807.76891942 105.51723231 806.33694877 105.52080077 804.90498081 105.52516228 C800.96158539 105.53462264 797.01828232 105.53161887 793.07488236 105.52660674 C788.78785148 105.52334217 784.50084044 105.53162093 780.21381587 105.53842509 C772.69729965 105.54873846 765.1808092 105.55156656 757.66428661 105.54951286 C746.48682543 105.54646635 735.30939281 105.55477911 724.13193718 105.56526211 C703.00826433 105.58461944 681.88460117 105.59023099 660.7609205 105.59137623 C644.44968785 105.59229479 628.13845901 105.59640871 611.82722759 105.60277748 C607.13458068 105.60457253 602.44193375 105.60635216 597.74928683 105.60812724 C595.99944902 105.60879038 595.99944902 105.60879038 594.21426095 105.60946692 C561.39401656 105.62177804 528.57377349 105.62966778 495.75352669 105.62878036 C493.89684273 105.62873363 493.89684273 105.62873363 492.00265001 105.62868595 C485.7288096 105.62851973 479.45496919 105.62832165 473.18112878 105.62811653 C471.93508902 105.62807664 470.68904927 105.62803675 469.40525074 105.62799565 C466.8854537 105.62791478 464.36565667 105.62783118 461.84585964 105.62774487 C422.63928432 105.62651928 383.43274359 105.64153295 344.22617817 105.66889 C300.19258127 105.69960242 256.1590071 105.716823 212.12539881 105.71496356 C207.43118012 105.71481429 202.73696143 105.71471688 198.04274273 105.71465492 C196.30894917 105.71461996 196.30894917 105.71461996 194.54012948 105.71458429 C175.92854169 105.71452271 157.31698391 105.72730172 138.70540504 105.74451945 C120.00417474 105.76146244 101.30298837 105.76346024 82.60175464 105.75030081 C71.48860268 105.74290272 60.3755841 105.74659527 49.26244624 105.76618549 C41.83966194 105.77816588 34.41697447 105.77561604 26.99419465 105.76124449 C22.76453124 105.75346509 18.53512634 105.75197679 14.30548093 105.7681592 C10.45352739 105.78276749 6.60204649 105.77878565 2.75011363 105.76031146 C0.72059626 105.7552737 -1.30894136 105.76975543 -3.33840653 105.78515702 C-18.46283664 105.66784013 -30.54140589 100.5053432 -41.58705425 90.25726891 C-52.4243486 79.0208674 -56.31577839 65.60732964 -56.26527691 50.2482357 C-56.12739982 42.98565486 -55.11189856 36.84307825 -51.89955425 30.25726891 C-51.49865582 29.41422203 -51.09775738 28.57117516 -50.6847105 27.70258141 C-43.32248549 14.00244095 -32.205184 6.50561972 -18.05831546 1.18960798 C-12.18865692 -0.43513948 -6.03918999 -0.01956294 0 0 Z " fill="#F6B017" transform="translate(240.8995542526245,827.7427310943604)"/>
<path d="M0 0 C1.43197207 -0.00269449 2.86394272 -0.00626296 4.29591069 -0.01062447 C8.2393061 -0.02008483 12.18260917 -0.01708105 16.12600914 -0.01206893 C20.41304001 -0.00880436 24.70005106 -0.01708312 28.98707563 -0.02388728 C36.50359184 -0.03420065 44.02008229 -0.03702875 51.53660488 -0.03497505 C62.71406607 -0.03192854 73.89149868 -0.0402413 85.06895431 -0.0507243 C106.19262716 -0.07008163 127.31629032 -0.07569317 148.43997099 -0.07683842 C164.75120365 -0.07775698 181.06243249 -0.0818709 197.3736639 -0.08823967 C202.06631082 -0.09003472 206.75895774 -0.09181435 211.45160466 -0.09358943 C213.20144247 -0.09425257 213.20144247 -0.09425257 214.98663054 -0.09492911 C247.80687494 -0.10724022 280.627118 -0.11512997 313.44736481 -0.11424255 C315.30404876 -0.11419582 315.30404876 -0.11419582 317.19824149 -0.11414814 C323.4720819 -0.11398192 329.74592231 -0.11378384 336.01976272 -0.11357872 C337.26580247 -0.11353883 338.51184222 -0.11349894 339.79564076 -0.11345784 C342.31543779 -0.11337697 344.83523482 -0.11329337 347.35503186 -0.11320706 C386.56160718 -0.11198147 425.7681479 -0.12699514 464.97471333 -0.15435219 C509.00831022 -0.18506461 553.04188439 -0.20228519 597.07549268 -0.20042574 C601.76971138 -0.20027648 606.46393007 -0.20017907 611.15814877 -0.20011711 C612.89194233 -0.20008215 612.89194233 -0.20008215 614.66076202 -0.20004648 C633.2723498 -0.1999849 651.88390759 -0.21276391 670.49548645 -0.22998164 C689.19671676 -0.24692463 707.89790312 -0.24892242 726.59913685 -0.235763 C737.71228881 -0.22836491 748.82530739 -0.23205745 759.93844526 -0.25164768 C767.36122956 -0.26362806 774.78391703 -0.26107823 782.20669684 -0.24670668 C786.43636026 -0.23892728 790.66576516 -0.23743898 794.89541056 -0.25362138 C798.74736411 -0.26822968 802.59884501 -0.26424784 806.45077787 -0.24577365 C808.48029523 -0.24073589 810.50983285 -0.25521762 812.53929803 -0.27061921 C827.66372813 -0.15330232 839.74229739 5.00919461 850.78794575 15.25726891 C861.62524009 26.49367041 865.51666988 39.90720817 865.4661684 55.26630211 C865.32829131 62.52888296 864.31279006 68.67145956 861.10044575 75.25726891 C860.49909809 76.52183922 860.49909809 76.52183922 859.885602 77.81195641 C852.52337699 91.51209686 841.40607549 99.0089181 827.25920695 104.32492983 C821.38954841 105.9496773 815.24008149 105.53410075 809.20089149 105.51453781 C807.76891942 105.51723231 806.33694877 105.52080077 804.90498081 105.52516228 C800.96158539 105.53462264 797.01828232 105.53161887 793.07488236 105.52660674 C788.78785148 105.52334217 784.50084044 105.53162093 780.21381587 105.53842509 C772.69729965 105.54873846 765.1808092 105.55156656 757.66428661 105.54951286 C746.48682543 105.54646635 735.30939281 105.55477911 724.13193718 105.56526211 C703.00826433 105.58461944 681.88460117 105.59023099 660.7609205 105.59137623 C644.44968785 105.59229479 628.13845901 105.59640871 611.82722759 105.60277748 C607.13458068 105.60457253 602.44193375 105.60635216 597.74928683 105.60812724 C595.99944902 105.60879038 595.99944902 105.60879038 594.21426095 105.60946692 C561.39401656 105.62177804 528.57377349 105.62966778 495.75352669 105.62878036 C493.89684273 105.62873363 493.89684273 105.62873363 492.00265001 105.62868595 C485.7288096 105.62851973 479.45496919 105.62832165 473.18112878 105.62811653 C471.93508902 105.62807664 470.68904927 105.62803675 469.40525074 105.62799565 C466.8854537 105.62791478 464.36565667 105.62783118 461.84585964 105.62774487 C422.63928432 105.62651928 383.43274359 105.64153295 344.22617817 105.66889 C300.19258127 105.69960242 256.1590071 105.716823 212.12539881 105.71496356 C207.43118012 105.71481429 202.73696143 105.71471688 198.04274273 105.71465492 C196.30894917 105.71461996 196.30894917 105.71461996 194.54012948 105.71458429 C175.92854169 105.71452271 157.31698391 105.72730172 138.70540504 105.74451945 C120.00417474 105.76146244 101.30298837 105.76346024 82.60175464 105.75030081 C71.48860268 105.74290272 60.3755841 105.74659527 49.26244624 105.76618549 C41.83966194 105.77816588 34.41697447 105.77561604 26.99419465 105.76124449 C22.76453124 105.75346509 18.53512634 105.75197679 14.30548093 105.7681592 C10.45352739 105.78276749 6.60204649 105.77878565 2.75011363 105.76031146 C0.72059626 105.7552737 -1.30894136 105.76975543 -3.33840653 105.78515702 C-18.46283664 105.66784013 -30.54140589 100.5053432 -41.58705425 90.25726891 C-52.4243486 79.0208674 -56.31577839 65.60732964 -56.26527691 50.2482357 C-56.12739982 42.98565486 -55.11189856 36.84307825 -51.89955425 30.25726891 C-51.49865582 29.41422203 -51.09775738 28.57117516 -50.6847105 27.70258141 C-43.32248549 14.00244095 -32.205184 6.50561972 -18.05831546 1.18960798 C-12.18865692 -0.43513948 -6.03918999 -0.01956294 0 0 Z " fill="#F6B017" transform="translate(238.8995542526245,206.74273109436035)"/>
<path d="M0 0 C1.00201892 -0.00525911 1.00201892 -0.00525911 2.02428064 -0.01062447 C4.25473469 -0.01990197 6.48492555 -0.0150247 8.71539021 -0.01015663 C10.33392798 -0.01389474 11.95246395 -0.01849691 13.57099706 -0.02388728 C18.01285351 -0.03611295 22.45463461 -0.03585731 26.89650404 -0.03349853 C31.68944147 -0.03309025 36.48235478 -0.04413062 41.27528095 -0.05361366 C50.66377314 -0.07022263 60.05224021 -0.07572318 69.44074585 -0.07683842 C77.07348934 -0.07778901 84.70622455 -0.08189986 92.33896542 -0.08823967 C113.98447329 -0.10585235 135.62996133 -0.11507858 157.27547642 -0.11357872 C159.02564456 -0.11345885 159.02564456 -0.11345885 160.81116962 -0.11333656 C161.97937499 -0.1132548 163.14758036 -0.11317304 164.3511859 -0.1130888 C183.27989102 -0.11227605 202.20851654 -0.13141085 221.13719865 -0.1596133 C240.57821722 -0.18835023 260.01919698 -0.20215312 279.46023732 -0.20042574 C290.372778 -0.19976209 301.28523524 -0.20524361 312.19775677 -0.22678185 C321.48982891 -0.24500433 330.78177981 -0.24933222 340.0738621 -0.235763 C344.8125808 -0.22923858 349.55106695 -0.22909715 354.28976345 -0.2464695 C358.63319679 -0.26222863 362.97621374 -0.2593077 367.3196371 -0.24190123 C368.88558173 -0.23883757 370.45155766 -0.24243974 372.01746538 -0.25362138 C388.58005175 -0.3639964 401.48453342 3.90338003 413.7220583 15.25726891 C424.55935264 26.49367041 428.45078243 39.90720817 428.40028095 55.26630211 C428.26240386 62.52888296 427.24690261 68.67145956 424.0345583 75.25726891 C423.63365986 76.10031578 423.23276142 76.94336266 422.81971455 77.81195641 C415.53251154 91.37249069 404.13465157 99.63818245 389.75993747 104.32492983 C386.03260955 105.25775661 382.90218667 105.50997942 379.06911659 105.51453781 C378.06709768 105.51979692 378.06709768 105.51979692 377.04483595 105.52516228 C374.8143819 105.53443978 372.58419104 105.52956251 370.35372639 105.52469444 C368.73518861 105.52843255 367.11665265 105.53303472 365.49811953 105.53842509 C361.05626308 105.55065076 356.61448198 105.55039512 352.17261255 105.54803634 C347.37967512 105.54762806 342.58676182 105.55866843 337.79383564 105.56815147 C328.40534346 105.58476044 319.01687639 105.59026099 309.62837074 105.59137623 C301.99562725 105.59232682 294.36289204 105.59643767 286.73015118 105.60277748 C265.08464331 105.62039016 243.43915526 105.62961639 221.79364017 105.62811653 C220.04347204 105.62799666 220.04347204 105.62799666 218.25794697 105.62787437 C217.0897416 105.62779261 215.92153623 105.62771085 214.7179307 105.62762661 C195.78922557 105.62681386 176.86060005 105.64594867 157.93191794 105.67415111 C138.49089937 105.70288804 119.04991961 105.71669093 99.60887927 105.71496356 C88.69633859 105.7142999 77.78388136 105.71978142 66.87135983 105.74131966 C57.57928768 105.75954215 48.28733678 105.76387003 38.99525449 105.75030081 C34.25653579 105.74377639 29.51804964 105.74363497 24.77935314 105.76100731 C20.43591981 105.77676644 16.09290285 105.77384551 11.74947949 105.75643905 C10.18353486 105.75337538 8.61755893 105.75697755 7.05165122 105.7681592 C-9.51093516 105.87853421 -22.41541683 101.61115779 -34.6529417 90.25726891 C-45.49023605 79.0208674 -49.38166584 65.60732964 -49.33116436 50.2482357 C-49.19328727 42.98565486 -48.17778602 36.84307825 -44.9654417 30.25726891 C-44.56454327 29.41422203 -44.16364483 28.57117516 -43.75059795 27.70258141 C-36.46339495 14.14204712 -25.06553498 5.87635536 -10.69082087 1.18960798 C-6.96349296 0.2567812 -3.83307008 0.00455839 0 0 Z " fill="#F6B017" transform="translate(455.9654417037964,1034.7427310943604)"/>
<path d="M0 0 C1.00201892 -0.00525911 1.00201892 -0.00525911 2.02428064 -0.01062447 C4.25473469 -0.01990197 6.48492555 -0.0150247 8.71539021 -0.01015663 C10.33392798 -0.01389474 11.95246395 -0.01849691 13.57099706 -0.02388728 C18.01285351 -0.03611295 22.45463461 -0.03585731 26.89650404 -0.03349853 C31.68944147 -0.03309025 36.48235478 -0.04413062 41.27528095 -0.05361366 C50.66377314 -0.07022263 60.05224021 -0.07572318 69.44074585 -0.07683842 C77.07348934 -0.07778901 84.70622455 -0.08189986 92.33896542 -0.08823967 C113.98447329 -0.10585235 135.62996133 -0.11507858 157.27547642 -0.11357872 C159.02564456 -0.11345885 159.02564456 -0.11345885 160.81116962 -0.11333656 C161.97937499 -0.1132548 163.14758036 -0.11317304 164.3511859 -0.1130888 C183.27989102 -0.11227605 202.20851654 -0.13141085 221.13719865 -0.1596133 C240.57821722 -0.18835023 260.01919698 -0.20215312 279.46023732 -0.20042574 C290.372778 -0.19976209 301.28523524 -0.20524361 312.19775677 -0.22678185 C321.48982891 -0.24500433 330.78177981 -0.24933222 340.0738621 -0.235763 C344.8125808 -0.22923858 349.55106695 -0.22909715 354.28976345 -0.2464695 C358.63319679 -0.26222863 362.97621374 -0.2593077 367.3196371 -0.24190123 C368.88558173 -0.23883757 370.45155766 -0.24243974 372.01746538 -0.25362138 C388.58005175 -0.3639964 401.48453342 3.90338003 413.7220583 15.25726891 C424.55935264 26.49367041 428.45078243 39.90720817 428.40028095 55.26630211 C428.26240386 62.52888296 427.24690261 68.67145956 424.0345583 75.25726891 C423.63365986 76.10031578 423.23276142 76.94336266 422.81971455 77.81195641 C415.53251154 91.37249069 404.13465157 99.63818245 389.75993747 104.32492983 C386.03260955 105.25775661 382.90218667 105.50997942 379.06911659 105.51453781 C378.06709768 105.51979692 378.06709768 105.51979692 377.04483595 105.52516228 C374.8143819 105.53443978 372.58419104 105.52956251 370.35372639 105.52469444 C368.73518861 105.52843255 367.11665265 105.53303472 365.49811953 105.53842509 C361.05626308 105.55065076 356.61448198 105.55039512 352.17261255 105.54803634 C347.37967512 105.54762806 342.58676182 105.55866843 337.79383564 105.56815147 C328.40534346 105.58476044 319.01687639 105.59026099 309.62837074 105.59137623 C301.99562725 105.59232682 294.36289204 105.59643767 286.73015118 105.60277748 C265.08464331 105.62039016 243.43915526 105.62961639 221.79364017 105.62811653 C220.04347204 105.62799666 220.04347204 105.62799666 218.25794697 105.62787437 C217.0897416 105.62779261 215.92153623 105.62771085 214.7179307 105.62762661 C195.78922557 105.62681386 176.86060005 105.64594867 157.93191794 105.67415111 C138.49089937 105.70288804 119.04991961 105.71669093 99.60887927 105.71496356 C88.69633859 105.7142999 77.78388136 105.71978142 66.87135983 105.74131966 C57.57928768 105.75954215 48.28733678 105.76387003 38.99525449 105.75030081 C34.25653579 105.74377639 29.51804964 105.74363497 24.77935314 105.76100731 C20.43591981 105.77676644 16.09290285 105.77384551 11.74947949 105.75643905 C10.18353486 105.75337538 8.61755893 105.75697755 7.05165122 105.7681592 C-9.51093516 105.87853421 -22.41541683 101.61115779 -34.6529417 90.25726891 C-45.49023605 79.0208674 -49.38166584 65.60732964 -49.33116436 50.2482357 C-49.19328727 42.98565486 -48.17778602 36.84307825 -44.9654417 30.25726891 C-44.56454327 29.41422203 -44.16364483 28.57117516 -43.75059795 27.70258141 C-36.46339495 14.14204712 -25.06553498 5.87635536 -10.69082087 1.18960798 C-6.96349296 0.2567812 -3.83307008 0.00455839 0 0 Z " fill="#F6B017" transform="translate(453.9654417037964,-0.25726890563964844)"/>
</svg>
